<svg width="850" height="850" viewBox="0 0 126 135" fill="none" xmlns="http://www.w3.org/2000/svg">
<path fill-rule="evenodd" clip-rule="evenodd" d="M44.0354 0.607332L112.407 18.9274C121.847 21.4569 127.449 31.1602 124.92 40.6003L103.165 121.792C100.635 131.232 90.9319 136.834 81.4919 134.305L13.1202 115.984C3.68007 113.455 -1.92213 103.752 0.607373 94.3109L22.3625 13.1202C24.892 3.68013 34.5953 -1.92207 44.0354 0.607332ZM41.7454 9.15383C37.0253 7.88903 32.1737 10.6901 30.9089 15.4102L9.15378 96.6019C7.88908 101.322 10.6902 106.173 15.4103 107.438L83.7819 125.758C88.5019 127.023 93.3539 124.222 94.6179 119.502L116.373 38.3103C117.638 33.5903 114.837 28.7386 110.117 27.4739L41.7454 9.15383Z" fill="#111111"/>
<path d="M40.2944 31.6648C40.9268 29.3048 43.3526 27.9042 45.7127 28.5366L96.9914 42.2767C99.3514 42.909 100.752 45.3348 100.119 47.6949C99.4874 50.0549 97.0614 51.4555 94.7014 50.8231L43.4227 37.083C41.0626 36.4507 39.6621 34.0248 40.2944 31.6648Z" fill="#111111"/>
<path d="M34.5679 53.0301C35.2003 50.6701 37.6261 49.2694 39.9861 49.9018L91.2649 63.642C93.6249 64.2743 95.0249 66.7002 94.3929 69.0602C93.7609 71.4202 91.3349 72.8207 88.9749 72.1883L37.6961 58.4483C35.3361 57.816 33.9355 55.3901 34.5679 53.0301Z" fill="#111111"/>
<path d="M28.8433 74.3972C29.4756 72.0372 31.9015 70.6366 34.2615 71.269L64.1741 79.2838C66.5341 79.9168 67.9346 82.3418 67.3023 84.7018C66.6699 87.0628 64.2441 88.4628 61.884 87.8308L31.9715 79.8158C29.6115 79.1828 28.2109 76.7572 28.8433 74.3972Z" fill="#111111"/>
</svg>
