<svg width="800" height="800" viewBox="0 0 800 800" fill="none" xmlns="http://www.w3.org/2000/svg">
<path d="M106.628 0.562256C47.8772 0.562256 0.0430164 48.3872 0 107.184C0 165.982 47.8342 213.816 106.628 213.816C165.401 213.816 213.211 165.982 213.211 107.184C213.211 48.3934 165.398 0.562256 106.628 0.562256Z" fill="#242020"/>
<path d="M186.655 256.657H26.5906C18.9767 256.657 12.8008 262.83 12.8008 270.45V785.648C12.8008 793.265 18.9767 799.438 26.5906 799.438H186.651C194.268 799.438 200.444 793.262 200.444 785.648V270.45C200.447 262.827 194.271 256.657 186.655 256.657Z" fill="#242020"/>
<path d="M595.851 250.592C537.275 250.592 485.799 268.428 454.388 297.513V270.45C454.388 262.83 448.212 256.657 440.595 256.657H287.055C279.438 256.657 273.262 262.83 273.262 270.45V785.648C273.262 793.265 279.438 799.438 287.055 799.438H446.965C454.582 799.438 460.758 793.262 460.758 785.648V530.754C460.758 457.62 474.21 412.29 541.343 412.29C607.484 412.37 612.433 460.979 612.433 535.124V785.648C612.433 793.265 618.609 799.438 626.229 799.438H786.213C793.827 799.438 800.003 793.262 800.003 785.648V503.04C800 385.503 776.796 250.592 595.851 250.592Z" fill="#242020"/>
</svg>
